<?xml version="1.0" standalone="no"?>
<!DOCTYPE svg PUBLIC "-//W3C//DTD SVG 20010904//EN"
 "http://www.w3.org/TR/2001/REC-SVG-20010904/DTD/svg10.dtd">
<svg version="1.0" xmlns="http://www.w3.org/2000/svg"
 width="1600.000000pt" height="1600.000000pt" viewBox="0 0 1600.000000 1600.000000"
 preserveAspectRatio="xMidYMid meet">
<metadata>
Created by potrace 1.14, written by Peter Selinger 2001-2017
</metadata>
<g transform="translate(0.000000,1600.000000) scale(0.100000,-0.100000)"
fill="#000000" stroke="none">
<path d="M8970 13259 c-728 -55 -1430 -296 -2020 -692 -587 -394 -1043 -896
-1382 -1521 -34 -61 -62 -112 -63 -114 -2 -2 -33 15 -69 37 -253 156 -537 255
-861 302 -129 18 -178 21 -355 16 -218 -6 -319 -19 -510 -67 -637 -161 -1189
-618 -1468 -1215 -113 -242 -164 -431 -207 -756 l-6 -46 -107 -43 c-517 -207
-1011 -597 -1344 -1060 -245 -341 -425 -746 -513 -1154 -76 -356 -87 -796 -29
-1156 67 -416 235 -845 469 -1200 223 -338 547 -662 885 -885 415 -274 898
-444 1399 -495 144 -14 10508 -14 10652 0 838 84 1606 543 2073 1240 274 408
430 842 477 1324 15 153 6 545 -15 684 -94 619 -366 1161 -801 1598 -238 240
-466 405 -760 549 -93 46 -222 102 -285 125 -146 53 -382 114 -530 136 l-115
17 3 151 c16 657 -164 1388 -491 2001 -236 445 -535 825 -912 1162 -519 465
-1130 787 -1810 954 -406 99 -891 140 -1305 108z"/>
</g>
</svg>
